<?xml version="1.0" standalone="no"?>
<!DOCTYPE svg PUBLIC "-//W3C//DTD SVG 20010904//EN"
 "http://www.w3.org/TR/2001/REC-SVG-20010904/DTD/svg10.dtd">
<svg version="1.0" xmlns="http://www.w3.org/2000/svg"
 width="1181.000000pt" height="1181.000000pt" viewBox="0 0 1181.000000 1181.000000"
 preserveAspectRatio="xMidYMid meet">

<g transform="translate(0.000000,1181.000000) scale(0.100000,-0.100000)"
fill="#000000" stroke="none">
<path d="M5600 11804 c-457 -27 -917 -104 -1328 -223 -2222 -643 -3868 -2521
-4206 -4797 -49 -331 -60 -493 -60 -879 0 -386 11 -547 60 -880 106 -715 360
-1443 724 -2075 622 -1079 1607 -1959 2755 -2460 1002 -437 2117 -586 3215
-429 860 123 1706 449 2438 942 944 634 1695 1541 2141 2585 238 556 383 1132
448 1772 25 246 25 843 0 1090 -77 763 -270 1436 -603 2101 -364 728 -877
1373 -1509 1899 -821 683 -1837 1138 -2890 1294 -291 43 -482 57 -810 60 -170
2 -339 2 -375 0z m1153 -2147 l-27 -28 -388 388 -388 388 0 -373 0 -372 -40 0
-40 0 0 377 0 378 -393 -393 -392 -392 -28 27 -27 28 437 437 438 438 437
-437 438 -437 -27 -29z m457 -2683 c470 -1186 857 -2160 858 -2165 2 -6 -119
-8 -309 -7 l-313 3 -380 958 -379 957 -781 0 -781 0 -375 -946 c-206 -520
-379 -953 -385 -960 -8 -12 -63 -14 -317 -12 l-307 3 857 2162 857 2162 450 1
450 0 855 -2156z m-4357 424 l-388 -388 373 0 372 0 0 -40 0 -40 -370 0 c-203
0 -370 -3 -370 -8 0 -4 173 -180 385 -392 l385 -384 -27 -29 -27 -28 -438 438
-438 438 437 437 437 438 29 -27 28 -27 -388 -388z m6210 -870 l-437 -438 -29
27 -28 27 386 386 c212 212 385 388 385 393 0 4 -166 7 -370 7 l-370 0 0 40 0
40 372 0 373 0 -388 388 -387 387 27 28 28 27 437 -437 438 -438 -437 -437z
m-3200 -2998 c4 0 7 169 7 376 l0 375 38 -3 37 -3 5 -373 5 -372 385 385 384
385 29 -27 28 -27 -438 -438 -438 -438 -437 437 -438 437 27 29 27 28 386
-386 c212 -212 388 -385 393 -385z m-2364 -419 c10 -10 124 -228 252 -485 129
-256 236 -466 239 -466 3 0 112 212 244 470 159 315 246 476 262 487 30 19 84
11 109 -17 13 -14 16 -29 12 -57 -3 -22 -117 -250 -271 -543 l-266 -505 0
-340 c0 -379 0 -378 -65 -391 -45 -8 -94 12 -106 43 -5 13 -9 175 -9 359 l0
335 -270 518 c-148 284 -270 526 -270 537 0 59 96 98 139 55z m1896 4 c39 -8
97 -28 131 -45 75 -37 166 -129 200 -204 51 -112 55 -170 52 -718 -4 -453 -6
-508 -22 -558 -77 -233 -238 -340 -512 -340 -277 0 -446 116 -512 353 -15 55
-17 120 -17 582 0 563 1 573 56 691 35 75 127 165 203 200 114 52 284 68 421
39z m775 2 l25 -13 5 -714 c5 -681 6 -717 25 -767 35 -90 75 -137 151 -174 67
-33 72 -34 194 -34 119 0 128 1 184 30 69 35 118 88 148 164 l23 56 3 712 3
712 27 22 c21 16 36 20 69 16 79 -9 73 52 73 -736 0 -766 -2 -786 -55 -892
-84 -165 -245 -249 -480 -249 -267 0 -429 102 -507 320 l-23 65 -3 715 c-2
393 -1 724 2 736 10 39 86 57 136 31z m1934 -11 c178 -52 288 -162 326 -325
18 -74 15 -252 -5 -325 -42 -158 -148 -261 -318 -311 l-57 -16 16 -32 c9 -18
99 -190 200 -384 101 -194 184 -362 184 -373 0 -12 -13 -35 -29 -51 -37 -37
-88 -40 -118 -6 -11 12 -114 203 -228 425 l-207 402 -159 0 -159 0 0 -400 c0
-385 -1 -401 -20 -420 -41 -41 -124 -36 -147 10 -10 19 -13 221 -13 903 l0
878 25 25 26 26 312 -5 c257 -3 323 -7 371 -21z"/>
<path d="M5745 8283 c-87 -219 -218 -549 -291 -733 l-134 -335 582 -3 c320 -1
583 -1 584 1 4 3 -559 1427 -575 1454 -5 10 -58 -111 -166 -384z"/>
<path d="M5121 2955 c-109 -31 -179 -98 -211 -203 -19 -60 -20 -94 -20 -561 0
-514 3 -549 43 -627 25 -49 76 -95 137 -123 50 -23 67 -26 175 -26 108 0 125
3 175 26 106 49 162 134 180 270 12 96 12 862 0 957 -18 136 -74 219 -182 267
-78 35 -211 44 -297 20z"/>
<path d="M7550 2616 l0 -356 200 0 c261 0 344 18 428 94 57 52 84 121 90 234
7 136 -15 210 -83 278 -87 87 -126 97 -402 102 l-233 4 0 -356z"/>
</g>
</svg>
